HIERARCHY
ROOT Hips
{
 OFFSET 0.000000 0.000000 0.000000
 CHANNELS 6 Xposition Yposition Zposition Yrotation Xrotation Zrotation
 JOINT Chest
 {
  OFFSET 0.000000 10.354800 0.006500
  CHANNELS 3 Yrotation Xrotation Zrotation
  JOINT Chest2
  {
   OFFSET 0.000000 10.435800 -0.013200
   CHANNELS 3 Yrotation Xrotation Zrotation
   JOINT Chest3
   {
    OFFSET 0.000000 10.393700 0.000000
    CHANNELS 3 Yrotation Xrotation Zrotation
    JOINT Chest4
    {
     OFFSET 0.000000 10.383100 0.000000
     CHANNELS 3 Yrotation Xrotation Zrotation
     JOINT Neck
     {
      OFFSET 0.000000 15.694000 0.000000
      CHANNELS 3 Yrotation Xrotation Zrotation
      JOINT Head
      {
       OFFSET 0.000000 9.711000 -0.028000
       CHANNELS 3 Yrotation Xrotation Zrotation
       End Site
       {
        OFFSET 0.000000 18.578700 -0.014800
       }
      }
     }
     JOINT RightCollar
     {
      OFFSET -3.157200 10.367500 0.000000
      CHANNELS 3 Yrotation Xrotation Zrotation
      JOINT RightShoulder
      {
       OFFSET -14.482500 0.000000 0.000000
       CHANNELS 3 Yrotation Xrotation Zrotation
       JOINT RightElbow
       {
        OFFSET 0.000000 -31.707800 0.000000
        CHANNELS 3 Yrotation Xrotation Zrotation
        JOINT RightWrist
        {
         OFFSET 0.000000 -25.659300 0.000000
         CHANNELS 3 Yrotation Xrotation Zrotation
         End Site
         {
          OFFSET 0.000000 -18.994300 0.000000
         }
        }
       }
      }
     }
     JOINT LeftCollar
     {
      OFFSET 3.157200 10.367500 0.000000
      CHANNELS 3 Yrotation Xrotation Zrotation
      JOINT LeftShoulder
      {
       OFFSET 14.482500 0.000000 0.000000
       CHANNELS 3 Yrotation Xrotation Zrotation
       JOINT LeftElbow
       {
        OFFSET 0.000000 -31.707800 0.000000
        CHANNELS 3 Yrotation Xrotation Zrotation
        JOINT LeftWrist
        {
         OFFSET 0.000000 -25.659300 0.000000
         CHANNELS 3 Yrotation Xrotation Zrotation
         End Site
         {
          OFFSET 0.000000 -18.994300 0.000000
         }
        }
       }
      }
     }
    }
   }
  }
 }
 JOINT RightHip
 {
  OFFSET -8.365600 -0.032100 -0.003200
  CHANNELS 3 Yrotation Xrotation Zrotation
  JOINT RightKnee
  {
   OFFSET 0.000000 -43.980000 0.003100
   CHANNELS 3 Yrotation Xrotation Zrotation
   JOINT RightAnkle
   {
    OFFSET 0.000000 -42.882800 0.005200
    CHANNELS 3 Yrotation Xrotation Zrotation
    JOINT RightToe
    {
     OFFSET 0.000000 -4.915500 10.826300
     CHANNELS 3 Yrotation Xrotation Zrotation
     End Site
     {
      OFFSET 0.000000 -1.517500 6.175900
     }
    }
   }
  }
 }
 JOINT LeftHip
 {
  OFFSET 8.365600 -0.032100 -0.003200
  CHANNELS 3 Yrotation Xrotation Zrotation
  JOINT LeftKnee
  {
   OFFSET 0.000000 -43.980000 0.003100
   CHANNELS 3 Yrotation Xrotation Zrotation
   JOINT LeftAnkle
   {
    OFFSET 0.000000 -42.882800 0.005200
    CHANNELS 3 Yrotation Xrotation Zrotation
    JOINT LeftToe
    {
     OFFSET 0.000000 -4.915500 10.826300
     CHANNELS 3 Yrotation Xrotation Zrotation
     End Site
     {
      OFFSET 0.000000 -1.517500 6.175900
     }
    }
   }
  }
 }
}
MOTION
Frames: 5
Frame Time: 0.008333
-7.233859 127.463462 36.642547 176.978457 -45.041175 -4.703365 -0.176466 17.774848 2.521988 -0.058719 1.963140 0.277971 -0.098331 3.222439 0.456500 -0.199092 15.584002 2.197826 -3.118850 21.845980 -3.134575 -2.635200 -2.312049 -2.664658 2.607922 3.056118 -8.854672 -19.522384 -33.651574 -28.809370 -132.139112 -66.524843 114.621993 -19.148350 -20.097182 -33.239672 3.405324 4.566696 6.288995 28.646833 -36.999806 15.192763 150.750517 -68.870304 -140.828337 23.692992 -8.992772 19.894741 11.698295 -37.674480 3.469404 -115.678548 84.166177 -109.177227 3.889532 -11.847579 -12.814338 -0.008740 -0.003316 -0.003968 -12.814453 -36.739324 4.853032 77.790852 82.793702 69.971818 -10.511347 -5.780057 1.396770 -0.000617 -0.001988 -0.000280
-7.232224 127.464063 36.638400 176.971925 -45.017433 -4.687093 -0.171421 17.774249 2.514747 -0.057341 1.970345 0.279289 -0.099569 3.227373 0.457052 -0.199378 15.566168 2.192880 -3.111855 21.830449 -3.126389 -2.628749 -2.332127 -2.658284 2.601072 3.061323 -8.868385 -19.623500 -33.610986 -28.787395 -132.334797 -66.555131 114.929973 -19.156670 -20.224425 -33.269265 3.411349 4.567228 6.283339 28.619157 -36.971796 15.208779 150.770432 -68.861014 -140.807851 23.606698 -9.075744 20.337051 11.683634 -37.700251 3.492624 -116.067331 84.159727 -109.573784 3.855737 -11.988625 -12.846247 -0.007577 -0.002966 -0.003440 -12.833398 -36.748209 4.861758 77.817025 82.792201 69.977405 -10.536215 -5.803972 1.406987 -0.001770 0.000883 -0.000803
-7.229618 127.465746 36.633506 176.969934 -45.004084 -4.678762 -0.170896 17.768312 2.509019 -0.056229 1.977230 0.280825 -0.087593 3.272629 0.461420 -0.209216 15.523101 2.185859 -3.089019 21.827534 -3.111050 -2.628647 -2.372087 -2.644562 2.597798 3.071581 -8.880234 -19.715112 -33.575470 -28.766479 -132.492095 -66.537498 115.180633 -19.125919 -20.345730 -33.296948 3.410126 4.555749 6.283256 28.585198 -36.947983 15.228068 150.777795 -68.860150 -140.811159 23.524099 -9.195202 20.939674 11.676331 -37.715971 3.512535 -116.404308 84.141712 -109.906204 3.837605 -12.105945 -12.875461 -0.006367 -0.004222 -0.002890 -12.845037 -36.754478 4.867465 77.912419 82.793806 70.063373 -10.554586 -5.823032 1.412161 -0.003886 -0.000903 -0.001764
-7.226771 127.467416 36.628836 176.967152 -44.993219 -4.670632 -0.167593 17.783433 2.511295 -0.057359 1.964482 0.276715 -0.081748 3.287605 0.464367 -0.206386 15.526372 2.179413 -3.082112 21.809893 -3.097876 -2.631542 -2.402244 -2.632042 2.589280 3.054458 -8.884109 -19.778693 -33.534581 -28.762040 -132.629717 -66.504248 115.397077 -19.114061 -20.408669 -33.350300 3.405194 4.550091 6.280559 28.560245 -36.942141 15.242961 150.807380 -68.821242 -140.873612 23.442232 -9.329529 21.724382 11.670635 -37.726231 3.533258 -116.622107 84.108371 -110.121532 3.835929 -12.202468 -12.896664 -0.003965 -0.003980 -0.001800 -12.852424 -36.760531 4.871362 78.019605 82.799938 70.166695 -10.565571 -5.843933 1.414661 -0.005548 -0.003359 -0.002519
-7.226327 127.467017 36.626032 176.975813 -44.968730 -4.656895 -0.164653 17.811487 2.512465 -0.056272 1.966636 0.276513 -0.088095 3.262949 0.457858 -0.205804 15.524570 2.172939 -3.085786 21.787749 -3.092266 -2.617085 -2.428611 -2.618781 2.591857 3.070090 -8.894044 -19.835767 -33.545254 -28.738717 -132.752048 -66.503888 115.592112 -19.099617 -20.470559 -33.416591 3.402152 4.546663 6.277703 28.533895 -36.932087 15.272353 150.816906 -68.773017 -140.886704 23.377907 -9.472784 22.611999 11.679495 -37.747708 3.509087 -117.019353 84.055258 -110.504415 3.870183 -12.288924 -12.916707 -0.004635 0.002476 -0.002104 -12.853652 -36.785762 4.852519 78.131067 82.806642 70.278033 -10.499748 -5.869968 1.411085 0.000648 -0.005220 0.000294
